# xmcd CD database file generated by Grip 3.0.7
# 
# Track frame offsets:
#       150
#       9506
#       25610
#       41382
#       54520
#       66782
#       78875
#       82616
#       95262
#       110447
# 
# Disc length: 1612 seconds
# 
# Revision: 1
# Processed by: cddbd v1.5.1PL0 Copyright (c) Steve Scherf et al.
# Submitted via: Grip 3.0.7
# 
DISCID=60064a0a
DTITLE=Flashlight Brown - Flashlight Brown
DYEAR=1995
DGENRE=Punk
TTITLE0=I'll Only Make You Cry
TTITLE1=Looking Away
TTITLE2=Today
TTITLE3=Ready To Roll
TTITLE4=A Freak
TTITLE5=This Bird
TTITLE6=Excuse For A Grant
TTITLE7=On And On
TTITLE8=Ice Cold
TTITLE9=No One Does It Better
EXTD=its line dancing crazy\n
EXTT0=
EXTT1=
EXTT2=
EXTT3=
EXTT4=
EXTT5=
EXTT6=
EXTT7=
EXTT8=
EXTT9=
PLAYORDER=
